<svg width="412" height="248" viewBox="0 0 412 248" fill="none" xmlns="http://www.w3.org/2000/svg">
  <rect width="412" height="248" fill="#ECEEF2"/>
  <ellipse cx="206" cy="210" rx="92" ry="14" fill="#D5D9E0" opacity="0.7"/>
  <path d="M154 210H258C258 186 248 168 232 160V152C232 146 227 142 221 142H191C185 142 180 146 180 152V160C164 168 154 186 154 210Z" fill="#7FD087"/>
  <path d="M168 210H244C244 194 236 182 224 176V170C224 166 221 164 217 164H195C191 164 188 166 188 170V176C176 182 168 194 168 210Z" fill="#8FD694"/>
  <ellipse cx="206" cy="108" rx="44" ry="44" fill="url(#coinGradient)"/>
  <ellipse cx="206" cy="104" rx="44" ry="12" fill="#E8ECF0" opacity="0.55"/>
  <circle cx="206" cy="108" r="18" fill="#C5CDD6" opacity="0.35"/>
  <rect x="318" y="36" width="28" height="28" rx="6" fill="#7FD087"/>
  <rect x="324" y="42" width="6" height="6" fill="#2D5C34"/>
  <rect x="332" y="42" width="6" height="6" fill="#2D5C34"/>
  <rect x="324" y="50" width="6" height="6" fill="#2D5C34"/>
  <rect x="332" y="50" width="6" height="6" fill="#4A8F52"/>
  <defs>
    <linearGradient id="coinGradient" x1="162" y1="64" x2="250" y2="152" gradientUnits="userSpaceOnUse">
      <stop stop-color="#F4F7FA"/>
      <stop offset="0.45" stop-color="#D7DEE6"/>
      <stop offset="1" stop-color="#B8C2CE"/>
    </linearGradient>
  </defs>
</svg>
