<svg width="884" height="472" viewBox="0 0 884 472" fill="none" xmlns="http://www.w3.org/2000/svg">
  <rect width="884" height="472" fill="#ECEEF2"/>
  <g transform="translate(120 72)">
    <rect x="0" y="0" width="96" height="96" fill="#8FD694"/>
    <rect x="96" y="0" width="96" height="96" fill="#8FD694"/>
    <rect x="192" y="0" width="96" height="96" fill="#8FD694"/>
    <rect x="288" y="0" width="96" height="96" fill="#8FD694"/>
    <rect x="384" y="0" width="96" height="96" fill="#8FD694"/>
    <rect x="480" y="0" width="96" height="96" fill="#8FD694"/>
    <rect x="96" y="96" width="96" height="96" fill="#8FD694"/>
    <rect x="192" y="96" width="96" height="96" fill="#8FD694"/>
    <rect x="288" y="96" width="96" height="96" fill="#8FD694"/>
    <rect x="384" y="96" width="96" height="96" fill="#8FD694"/>
    <rect x="480" y="96" width="96" height="96" fill="#8FD694"/>
    <rect x="576" y="96" width="96" height="96" fill="#8FD694"/>
    <rect x="0" y="192" width="96" height="96" fill="#8FD694"/>
    <rect x="96" y="192" width="96" height="96" fill="#8FD694"/>
    <rect x="192" y="192" width="96" height="96" fill="#8FD694"/>
    <rect x="288" y="192" width="96" height="96" fill="#8FD694"/>
    <rect x="384" y="192" width="96" height="96" fill="#8FD694"/>
    <rect x="480" y="192" width="96" height="96" fill="#8FD694"/>
    <rect x="576" y="192" width="96" height="96" fill="#8FD694"/>
    <rect x="96" y="288" width="96" height="96" fill="#8FD694"/>
    <rect x="192" y="288" width="96" height="96" fill="#8FD694"/>
    <rect x="288" y="288" width="96" height="96" fill="#8FD694"/>
    <rect x="384" y="288" width="96" height="96" fill="#8FD694"/>
    <rect x="480" y="288" width="96" height="96" fill="#8FD694"/>
    <rect x="576" y="288" width="96" height="96" fill="#8FD694"/>
    <rect x="192" y="384" width="96" height="96" fill="#8FD694"/>
    <rect x="288" y="384" width="96" height="96" fill="#8FD694"/>
    <rect x="384" y="384" width="96" height="96" fill="#8FD694"/>
    <rect x="480" y="384" width="96" height="96" fill="#8FD694"/>
    <rect x="576" y="384" width="96" height="96" fill="#8FD694"/>
    <rect x="288" y="96" width="96" height="96" fill="#2D3748"/>
    <rect x="384" y="96" width="96" height="96" fill="#2D3748"/>
    <rect x="288" y="192" width="96" height="96" fill="#2D3748"/>
    <rect x="384" y="192" width="96" height="96" fill="#2D3748"/>
    <rect x="480" y="192" width="96" height="96" fill="#2D3748"/>
    <rect x="576" y="192" width="96" height="96" fill="#2D3748"/>
    <rect x="480" y="288" width="96" height="96" fill="#2D3748"/>
    <rect x="576" y="288" width="96" height="96" fill="#2D3748"/>
    <rect x="480" y="384" width="96" height="96" fill="#2D3748"/>
    <rect x="576" y="384" width="96" height="96" fill="#2D3748"/>
  </g>
</svg>
