<svg width="60" height="60" viewBox="0 0 60 60" fill="none" xmlns="http://www.w3.org/2000/svg">
<rect width="60" height="60" rx="30" fill="white"/>
<path d="M31.6567 12.6316V21.0841L38.5146 12.6316H31.6567ZM43.4226 13.7811L31.6567 28.3195V31.9711C31.6567 31.9034 31.6567 31.7682 31.7239 31.633L31.8584 31.0244C32.1273 30.0777 32.5307 29.1986 33.1358 28.4548L33.5392 27.9814C34.0099 27.5081 34.4805 27.1024 35.0184 26.8319C35.2873 26.6967 35.6235 26.5614 35.8924 26.4262C36.5648 26.2233 37.2371 26.1557 37.9094 26.1557L38.5818 26.2233C39.1197 26.3586 39.6575 26.5614 40.1282 26.7643C40.3971 26.8995 40.666 27.1024 40.935 27.3052C41.6745 27.9138 42.2797 28.6576 42.6831 29.4691L42.952 30.0777C43.1537 30.6863 43.2882 31.2948 43.4226 31.9711V13.7811ZM40.3971 33.3911C40.3971 31.1596 39.1197 29.4015 37.5733 29.4015C36.0269 29.4015 34.7495 31.2272 34.7495 33.3911C34.7495 35.5549 36.0269 37.3807 37.5733 37.3807C39.1197 37.3807 40.3971 35.5549 40.3971 33.3911ZM42.2124 33.3911C42.2124 36.6369 40.1282 39.2741 37.506 39.2741C34.9512 39.2741 32.8669 36.6369 32.8669 33.3911C32.8669 30.1453 34.9512 27.5081 37.506 27.5081C40.1282 27.4405 42.2124 30.0777 42.2124 33.3911ZM31.8584 35.6902L31.7239 35.014C31.7239 34.9464 31.6567 34.8111 31.6567 34.6759V41.776H43.3554V34.8111C43.2209 35.6226 42.952 36.434 42.6158 37.2455L42.2797 37.7864C41.809 38.4626 41.2711 39.1388 40.5988 39.6122L40.0609 39.9503C39.5903 40.2208 39.0524 40.4236 38.5146 40.4912C38.1784 40.5589 37.8422 40.5589 37.506 40.6265C37.0354 40.6265 36.632 40.5589 36.1614 40.4236C35.8252 40.356 35.5563 40.2208 35.2201 40.0855C34.5477 39.7474 33.9426 39.2741 33.472 38.7331L33.0686 38.2598C32.5307 37.4483 32.1273 36.6369 31.8584 35.6902ZM15.7895 40.6941L27.5554 26.1557V22.5042C27.5554 22.5718 27.5554 22.707 27.4882 22.8423L27.3537 23.4509C27.0848 24.3976 26.6814 25.209 26.0763 26.0204L25.6729 26.4938C25.2695 26.9671 24.7316 27.3729 24.1937 27.6433C23.9248 27.7786 23.5886 27.9138 23.3197 28.0491C22.6473 28.2519 21.975 28.3195 21.3027 28.3195L20.6303 28.2519C20.0924 28.1167 19.5546 27.9138 19.0839 27.6433C18.815 27.5081 18.5461 27.3052 18.2771 27.1024C17.5376 26.4938 16.9325 25.75 16.529 24.9385L16.2601 24.3299C16.0584 23.7213 15.9239 23.1128 15.7895 22.4366V40.6941ZM21.6388 17.0945C20.0924 17.0945 18.815 18.9203 18.815 21.0841C18.815 23.248 20.0924 25.0738 21.6388 25.0738C23.1852 25.0738 24.4627 23.3156 24.4627 21.0841C24.4627 18.8527 23.1852 17.0945 21.6388 17.0945ZM16.9997 21.0841C16.9997 17.8384 19.0839 15.2012 21.6388 15.2012C24.1937 15.2012 26.278 17.8384 26.278 21.0841C26.278 24.3299 24.1937 26.9671 21.6388 26.9671C19.0839 27.0348 16.9997 24.3976 16.9997 21.0841ZM27.3537 18.785L27.4882 19.4613C27.4882 19.5965 27.5554 19.6641 27.5554 19.7317V12.6316H15.7895V19.6641C15.9912 18.8527 16.1929 18.0412 16.529 17.2974L16.8652 16.7564C17.3359 16.0802 17.8737 15.404 18.5461 14.9307L19.0839 14.5926C19.6218 14.3221 20.0924 14.1192 20.6303 13.984C20.9665 13.9164 21.3027 13.9164 21.6388 13.8487C22.1095 13.8487 22.5129 13.9164 22.9835 14.0516C23.3197 14.1192 23.5886 14.2545 23.9248 14.3897C24.5971 14.7278 25.2022 15.2012 25.6729 15.7421L26.0763 16.2155C26.6814 16.9593 27.0848 17.8384 27.3537 18.785ZM27.5554 33.3911L20.6976 41.8437H27.5554V33.3911ZM40.0609 12.6316L16.4618 41.8437H19.0839L42.7503 12.6316H40.0609ZM30.5809 39.815H28.5639V41.8437H30.5809V39.815ZM44.5656 39.815V41.8437C45.9775 41.8437 46.9188 43.1284 46.9188 44.5485C46.9188 45.9009 45.7758 47.2533 44.4311 47.2533C43.4226 47.2533 42.4814 47.0504 40.5316 46.5771L28.4967 43.6018C21.9078 41.9113 15.8567 43.737 15.7895 48.0647H17.8065C17.8065 46.4418 20.8993 45.3599 27.5554 47.0504L39.792 50.0934C42.6158 50.7696 44.969 50.6343 46.6499 49.8229C48.3307 49.0114 49.4737 47.0504 49.4737 45.0218C49.4737 42.2494 47.3894 39.815 44.5656 39.815Z" fill="#50B848"/>
</svg>
