<svg width="22" height="22" viewBox="0 0 22 22" fill="none" xmlns="http://www.w3.org/2000/svg">
<g clip-path="url(#clip0_13_37)">
<g clip-path="url(#clip1_13_37)">
<path d="M10.9949 2.89024C6.02493 2.89024 1.99493 6.31563 1.99493 10.54C1.99493 14.7644 6.02493 18.1898 10.9949 18.1898C11.8249 18.1898 12.4949 17.6203 12.4949 16.9148C12.4949 16.5833 12.3449 16.2858 12.1049 16.0563C11.8749 15.8353 11.7249 15.5378 11.7249 15.2148C11.7249 14.5094 12.3949 13.9399 13.2249 13.9399H14.9949C17.7549 13.9399 19.9949 12.0359 19.9949 9.69002C19.9949 5.93315 15.9649 2.89024 10.9949 2.89024ZM5.49493 10.54C4.66493 10.54 3.99493 9.97052 3.99493 9.26504C3.99493 8.55956 4.66493 7.99008 5.49493 7.99008C6.32493 7.99008 6.99493 8.55956 6.99493 9.26504C6.99493 9.97052 6.32493 10.54 5.49493 10.54ZM8.49493 7.14011C7.66493 7.14011 6.99493 6.57063 6.99493 5.86515C6.99493 5.15967 7.66493 4.59019 8.49493 4.59019C9.32493 4.59019 9.99493 5.15967 9.99493 5.86515C9.99493 6.57063 9.32493 7.14011 8.49493 7.14011ZM13.4949 7.14011C12.6649 7.14011 11.9949 6.57063 11.9949 5.86515C11.9949 5.15967 12.6649 4.59019 13.4949 4.59019C14.3249 4.59019 14.9949 5.15967 14.9949 5.86515C14.9949 6.57063 14.3249 7.14011 13.4949 7.14011ZM16.4949 10.54C15.6649 10.54 14.9949 9.97052 14.9949 9.26504C14.9949 8.55956 15.6649 7.99008 16.4949 7.99008C17.3249 7.99008 17.9949 8.55956 17.9949 9.26504C17.9949 9.97052 17.3249 10.54 16.4949 10.54Z" fill="#1B1B1B"/>
</g>
</g>
<defs>
<clipPath id="clip0_13_37">
<rect width="22" height="22" fill="white"/>
</clipPath>
<clipPath id="clip1_13_37">
<rect width="22" height="22" fill="white"/>
</clipPath>
</defs>
</svg>
